<?xml version="1.0" encoding="utf-8"?>
<!-- Generator: Adobe Illustrator 18.1.0, SVG Export Plug-In . SVG Version: 6.00 Build 0)  -->
<svg version="1.1" id="Layer_1" xmlns="http://www.w3.org/2000/svg" xmlns:xlink="http://www.w3.org/1999/xlink" x="0px" y="0px"
	 viewBox="0 0 1523 800" style="enable-background:new 0 0 1523 800;" xml:space="preserve">
<style type="text/css">
	.st0{fill:#66CCFF;}
	.st1{fill:#129E29;stroke:#000000;stroke-miterlimit:10;}
</style>
<rect class="st0" width="1523" height="800"/>
<path class="st1" d="M896.3,800.5c0,0,6.4-44.8-0.8-91s5.7-88.1,14.3-105c8.6-16.9-8-28.3-16.4-12.1s-26.1,52.7-18,121.1
	c8.1,68.4,0.6,87,0.6,87H896.3z"/>
<path class="st1" d="M412.3,800.5c0,0,6.4-44.8-0.8-91s5.7-88.1,14.3-105c8.6-16.9-8-28.3-16.4-12.1c-8.4,16.2-26.1,52.7-18,121.1
	c8.1,68.4,0.6,87,0.6,87H412.3z"/>
<path class="st1" d="M511.3,800.5c0,0-6.4-44.8,0.8-91s-5.7-88.1-14.3-105c-8.6-16.9,8-28.3,16.4-12.1c8.4,16.2,26.1,52.7,18,121.1
	s-0.6,87-0.6,87H511.3z"/>
<path class="st1" d="M1260.7,800.5c0,0,6-12.7,0-39.4s-6.2-44.2,0-63.2c6.8-20.8,4-60.3-6.5-78.5c-10.5-18.2,17.7-28.4,28.5,0
	c12.3,32.5,11,61.5,2.9,89.9c-6.5,22.9,1.7,43.2,4.1,60.5c3.1,22.9-3,30.8-3,30.8H1260.7z"/>
<path class="st1" d="M490.1,800.5c0,0,15.9-34.4,0-80.4c-15.9-46-20.7-65.4,3.5-85.5s-4-34.6-23.4-10.6
	c-12.7,15.7-24.4,33.8,0,105.8c12.6,37.4-5.2,70.8-5.2,70.8H490.1z"/>
<path class="st1" d="M317,800.5c0,0-6-12.1,0-37.6c6-25.5,6.2-42.1,0-60.2c-6.8-19.8-4-57.4,6.5-74.7c10.5-17.3-17.7-27.1-28.5,0
	c-12.3,31-11,58.6-2.9,85.6c6.5,21.8-1.7,41.1-4.1,57.6c-3.1,21.9,3,29.4,3,29.4H317z"/>
<path class="st1" d="M900.7,800.5c0,0,6-12.4,0-38.7s-6.2-43.4,0-62.1c6.8-20.5,4-59.2-6.5-77.1s17.7-27.9,28.5,0
	c12.3,31.9,11,60.4,2.9,88.3c-6.5,22.5,1.7,42.4,4.1,59.4c3.1,22.5-3,30.3-3,30.3H900.7z"/>
<path class="st1" d="M1337,800.5c0,0-6-13.2,0-41.2s6.2-46.2,0-66.1c-6.8-21.8-4-63.1,6.5-82.1s-17.7-29.7-28.5,0
	c-12.3,34-11,64.3-2.9,94c6.5,23.9-1.7,45.1-4.1,63.2c-3.1,24,3,32.2,3,32.2H1337z"/>
<path class="st1" d="M21,800.5c0,0-6-13.2,0-41.2s6.2-46.2,0-66.1c-6.8-21.8-4-63.1,6.5-82.1S9.8,581.3-1,611
	c-12.3,34-11,64.3-2.9,94c6.5,23.9-1.7,45.1-4.1,63.2c-3.1,24,3,32.2,3,32.2H21z"/>
<path class="st1" d="M59.3,800.5c0,0,6-11,0-34.2s-6.2-38.3,0-54.8c6.8-18.1,4-52.3-6.5-68c-10.5-15.7,9.7-24.6,20.5,0
	c12.3,28.2,11,53.3,2.9,77.9c-6.5,19.8,1.7,37.5,4.1,52.5c3.1,19.9-3,26.8-3,26.8H59.3z"/>
<path class="st1" d="M210.3,800.5c0,0,6-11,0-34.2s-6.2-38.3,0-54.8c6.8-18.1,4-52.3-6.5-68c-10.5-15.7,9.7-24.6,20.5,0
	c12.3,28.2,11,53.3,2.9,77.9c-6.5,19.8,1.7,37.5,4.1,52.5c3.1,19.9-3,26.8-3,26.8H210.3z"/>
<path class="st1" d="M279.3,800.5c0,0,6-11,0-34.2s-6.2-38.3,0-54.8c6.8-18.1,4-52.3-6.5-68c-10.5-15.7,9.7-24.6,20.5,0
	c12.3,28.2,11,53.3,2.9,77.9c-6.5,19.8,1.7,37.5,4.1,52.5c3.1,19.9-3,26.8-3,26.8H279.3z"/>
<path class="st1" d="M491.3,800.5c0,0,6-11,0-34.2s-6.2-38.3,0-54.8c6.8-18.1,4-52.3-6.5-68c-10.5-15.7,9.7-24.6,20.5,0
	c12.3,28.2,11,53.3,2.9,77.9c-6.5,19.8,1.7,37.5,4.1,52.5c3.1,19.9-3,26.8-3,26.8H491.3z"/>
<path class="st1" d="M629,800.5c0,0-6-11,0-34.2s6.2-38.3,0-54.8c-6.8-18.1-4-52.3,6.5-68c10.5-15.7-9.7-24.6-20.5,0
	c-12.3,28.2-11,53.3-2.9,77.9c6.5,19.8-1.7,37.5-4.1,52.5c-3.1,19.9,3,26.8,3,26.8H629z"/>
<path class="st1" d="M919,800.5c0,0-6-11,0-34.2s6.2-38.3,0-54.8c-6.8-18.1-4-52.3,6.5-68c10.5-15.7-9.7-24.6-20.5,0
	c-12.3,28.2-11,53.3-2.9,77.9c6.5,19.8-1.7,37.5-4.1,52.5c-3.1,19.9,3,26.8,3,26.8H919z"/>
<path class="st1" d="M1307,800.5c0,0-6-11,0-34.2s6.2-38.3,0-54.8c-6.8-18.1-4-52.3,6.5-68c10.5-15.7-9.7-24.6-20.5,0
	c-12.3,28.2-11,53.3-2.9,77.9c6.5,19.8-1.7,37.5-4.1,52.5c-3.1,19.9,3,26.8,3,26.8H1307z"/>
<path class="st1" d="M1462,800.5c0,0-6-11,0-34.2s6.2-38.3,0-54.8c-6.8-18.1-4-52.3,6.5-68c10.5-15.7-9.7-24.6-20.5,0
	c-12.3,28.2-11,53.3-2.9,77.9c6.5,19.8-1.7,37.5-4.1,52.5c-3.1,19.9,3,26.8,3,26.8H1462z"/>
<path class="st1" d="M208,800.5c0,0-6-13.2,0-41.2s6.2-46.2,0-66.1c-6.8-21.8-4-63.1,6.5-82.1s-17.7-29.7-28.5,0
	c-12.3,34-11,64.3-2.9,94c6.5,23.9-1.7,45.1-4.1,63.2c-3.1,24,3,32.2,3,32.2H208z"/>
<path class="st1" d="M327.7,800.5c0,0,6-13.2,0-41.2s-6.2-46.2,0-66.1c6.8-21.8,4-63.1-6.5-82.1c-10.5-19,17.7-29.7,28.5,0
	c12.3,34,11,64.3,2.9,94c-6.5,23.9,1.7,45.1,4.1,63.2c3.1,24-3,32.2-3,32.2H327.7z"/>
<path class="st1" d="M28.7,800.5c0,0,6-13.2,0-41.2s-6.2-46.2,0-66.1c6.8-21.8,4-63.1-6.5-82.1s17.7-29.7,28.5,0
	c12.3,34,11,64.3,2.9,94c-6.5,23.9,1.7,45.1,4.1,63.2c3.1,24-3,32.2-3,32.2H28.7z"/>
<path class="st1" d="M460,800.5c0,0-6-13.2,0-41.2s6.2-46.2,0-66.1c-6.8-21.8-4-63.1,6.5-82.1s-17.7-29.7-28.5,0
	c-12.3,34-11,64.3-2.9,94c6.5,23.9-1.7,45.1-4.1,63.2c-3.1,24,3,32.2,3,32.2H460z"/>
<path class="st1" d="M617,800.5c0,0-6-13.2,0-41.2s6.2-46.2,0-66.1c-6.8-21.8-4-63.1,6.5-82.1c10.5-19-17.7-29.7-28.5,0
	c-12.3,34-11,64.3-2.9,94c6.5,23.9-1.7,45.1-4.1,63.2c-3.1,24,3,32.2,3,32.2H617z"/>
<path class="st1" d="M833,800.5c0,0-6-12.5,0-39c6-26.5,6.2-43.7,0-62.6c-6.8-20.6-4-59.7,6.5-77.6c10.5-18-17.7-28.1-28.5,0
	c-12.3,32.2-11,60.8-2.9,88.9c6.5,22.6-1.7,42.7-4.1,59.8c-3.1,22.7,3,30.5,3,30.5H833z"/>
<path class="st1" d="M766,800.5c0,0-6-12.5,0-39c6-26.5,6.2-43.7,0-62.6c-6.8-20.6-4-59.7,6.5-77.6c10.5-18-17.7-28.1-28.5,0
	c-12.3,32.2-11,60.8-2.9,88.9c6.5,22.6-1.7,42.7-4.1,59.8c-3.1,22.7,3,30.5,3,30.5H766z"/>
<path class="st1" d="M107,800.5c0,0-6-13.2,0-41.2s6.2-46.2,0-66.1c-6.8-21.8-4-63.1,6.5-82.1s-17.7-29.7-28.5,0
	c-12.3,34-11,64.3-2.9,94c6.5,23.9-1.7,45.1-4.1,63.2c-3.1,24,3,32.2,3,32.2H107z"/>
<path class="st1" d="M185,800.5c0,0-6-10.7,0-33.2c6-22.5,6.2-37.2,0-53.2c-6.8-17.5-4-50.8,6.5-66.1c10.5-15.3-17.7-23.9-28.5,0
	c-12.3,27.4-11,51.8-2.9,75.7c6.5,19.3-1.7,36.4-4.1,50.9c-3.1,19.3,3,26,3,26H185z"/>
<path class="st1" d="M440,800.5c0,0-6-10.7,0-33.2c6-22.5,6.2-37.2,0-53.2c-6.8-17.5-4-50.8,6.5-66.1c10.5-15.3-17.7-23.9-28.5,0
	c-12.3,27.4-11,51.8-2.9,75.7c6.5,19.3-1.7,36.4-4.1,50.9c-3.1,19.3,3,26,3,26H440z"/>
<path class="st1" d="M670,800.5c0,0-6-13.2,0-41.2s6.2-46.2,0-66.1c-6.8-21.8-4-63.1,6.5-82.1c10.5-19-17.7-29.7-28.5,0
	c-12.3,34-11,64.3-2.9,94c6.5,23.9-1.7,45.1-4.1,63.2c-3.1,24,3,32.2,3,32.2H670z"/>
<path class="st1" d="M1119,800.5c0,0-6-12.4,0-38.6c6-26.2,6.2-43.2,0-61.8c-6.8-20.4-4-58.9,6.5-76.7c10.5-17.8-17.7-27.8-28.5,0
	c-12.3,31.8-11,60.1-2.9,87.8c6.5,22.4-1.7,42.2-4.1,59.1c-3.1,22.4,3,30.1,3,30.1H1119z"/>
<path class="st1" d="M793,800.5c0,0-6-13.2,0-41.2s6.2-46.2,0-66.1c-6.8-21.8-4-63.1,6.5-82.1c10.5-19-17.7-29.7-28.5,0
	c-12.3,34-11,64.3-2.9,94c6.5,23.9-1.7,45.1-4.1,63.2c-3.1,24,3,32.2,3,32.2H793z"/>
<path class="st1" d="M1517,800.5c0,0-6-13.2,0-41.2s6.2-46.2,0-66.1c-6.8-21.8-4-63.1,6.5-82.1s-17.7-29.7-28.5,0
	c-12.3,34-11,64.3-2.9,94c6.5,23.9-1.7,45.1-4.1,63.2c-3.1,24,3,32.2,3,32.2H1517z"/>
<path class="st1" d="M880,800.5c0,0-6-13.2,0-41.2s6.2-46.2,0-66.1c-6.8-21.8-4-63.1,6.5-82.1c10.5-19-17.7-29.7-28.5,0
	c-12.3,34-11,64.3-2.9,94c6.5,23.9-1.7,45.1-4.1,63.2c-3.1,24,3,32.2,3,32.2H880z"/>
<path class="st1" d="M715,800.5c0,0-6-10.7,0-33.2s6.2-37.2,0-53.3c-6.8-17.6-4-50.8,6.5-66.1c10.5-15.3-17.7-24-28.5,0
	c-12.3,27.4-11,51.8-2.9,75.8c6.5,19.3-1.7,36.4-4.1,51c-3.1,19.3,3,26,3,26H715z"/>
<path class="st1" d="M1363,800.5c0,0-6-12,0-37.2s6.2-41.7,0-59.7c-6.8-19.7-4-56.9,6.5-74.1s-17.7-26.8-28.5,0
	c-12.3,30.7-11,58.1-2.9,84.8c6.5,21.6-1.7,40.8-4.1,57.1c-3.1,21.7,3,29.1,3,29.1H1363z"/>
<path class="st1" d="M1078,800.5c0,0-6-11.9,0-37.1s6.2-41.5,0-59.4c-6.8-19.6-4-56.7,6.5-73.7s-17.7-26.7-28.5,0
	c-12.3,30.5-11,57.8-2.9,84.4c6.5,21.5-1.7,40.6-4.1,56.8c-3.1,21.6,3,29,3,29H1078z"/>
<path class="st1" d="M547,800.5c0,0-6-11.9,0-37.1s6.2-41.5,0-59.4c-6.8-19.6-4-56.7,6.5-73.7c10.5-17.1-17.7-26.7-28.5,0
	c-12.3,30.5-11,57.8-2.9,84.4c6.5,21.5-1.7,40.6-4.1,56.8c-3.1,21.6,3,29,3,29H547z"/>
<path class="st1" d="M1007,800.5c0,0-6-13.3,0-41.4s6.2-46.3,0-66.3c-6.8-21.8-4-63.2,6.5-82.3c10.5-19-17.7-29.8-28.5,0
	c-12.3,34.1-11,64.5-2.9,94.2c6.5,24-1.7,45.3-4.1,63.4c-3.1,24.1,3,32.3,3,32.3H1007z"/>
<path class="st1" d="M1143,800.5c0,0-6-11.1,0-34.5c6-23.4,6.2-38.6,0-55.3c-6.8-18.2-4-52.7,6.5-68.6c10.5-15.9-17.7-24.8-28.5,0
	c-12.3,28.4-11,53.8-2.9,78.6c6.5,20-1.7,37.7-4.1,52.9c-3.1,20.1,3,27,3,27H1143z"/>
<path class="st1" d="M134,800.5c0,0-6-11.9,0-37.1s6.2-41.5,0-59.4c-6.8-19.6-4-56.7,6.5-73.7s-17.7-26.7-28.5,0
	c-12.3,30.5-11,57.8-2.9,84.4c6.5,21.5-1.7,40.6-4.1,56.8c-3.1,21.6,3,29,3,29H134z"/>
<path class="st1" d="M954.7,800.5c0,0,6-13.2,0-41.2s-6.2-46.2,0-66.1c6.8-21.8,4-63.1-6.5-82.1c-10.5-19,17.7-29.7,28.5,0
	c12.3,34,11,64.3,2.9,94c-6.5,23.9,1.7,45.1,4.1,63.2c3.1,24-3,32.2-3,32.2H954.7z"/>
<path class="st1" d="M1256,800.5c0,0-6-13.2,0-41.2s6.2-46.2,0-66.1c-6.8-21.8-4-63.1,6.5-82.1s-17.7-29.7-28.5,0
	c-12.3,34-11,64.3-2.9,94c6.5,23.9-1.7,45.1-4.1,63.2c-3.1,24,3,32.2,3,32.2H1256z"/>
<path class="st1" d="M1435,800.5c0,0-6-13.2,0-41.2s6.2-46.2,0-66.1c-6.8-21.8-4-63.1,6.5-82.1s-17.7-29.7-28.5,0
	c-12.3,34-11,64.3-2.9,94c6.5,23.9-1.7,45.1-4.1,63.2c-3.1,24,3,32.2,3,32.2H1435z"/>
<path class="st1" d="M1140.7,800.5c0,0,6-13.2,0-41.2s-6.2-46.2,0-66.1c6.8-21.8,4-63.1-6.5-82.1c-10.5-19,17.7-29.7,28.5,0
	c12.3,34,11,64.3,2.9,94c-6.5,23.9,1.7,45.1,4.1,63.2c3.1,24-3,32.2-3,32.2H1140.7z"/>
<path class="st1" d="M1381.7,800.5c0,0,6-13.2,0-41.2s-6.2-46.2,0-66.1c6.8-21.8,4-63.1-6.5-82.1c-10.5-19,17.7-29.7,28.5,0
	c12.3,34,11,64.3,2.9,94c-6.5,23.9,1.7,45.1,4.1,63.2c3.1,24-3,32.2-3,32.2H1381.7z"/>
<path class="st1" d="M1193.7,800.5c0,0,6-13.2,0-41.2s-6.2-46.2,0-66.1c6.8-21.8,4-63.1-6.5-82.1c-10.5-19,17.7-29.7,28.5,0
	c12.3,34,11,64.3,2.9,94c-6.5,23.9,1.7,45.1,4.1,63.2c3.1,24-3,32.2-3,32.2H1193.7z"/>
<path class="st1" d="M139.3,800.5c0,0-6.4-41.1,0.8-83.5c7.2-42.4-5.7-80.8-14.3-96.3c-8.6-15.5,8-26,16.4-11.1
	c8.4,14.9,26.1,48.3,18,111.1s-0.6,79.9-0.6,79.9H139.3z"/>
<path class="st1" d="M564.3,800.5c0,0-6.4-41.1,0.8-83.5s-5.7-80.8-14.3-96.3c-8.6-15.5,8-26,16.4-11.1c8.4,14.9,26.1,48.3,18,111.1
	c-8.1,62.8-0.6,79.9-0.6,79.9H564.3z"/>
<path class="st1" d="M720.3,800.5c0,0-6.4-41.1,0.8-83.5s-5.7-80.8-14.3-96.3c-8.6-15.5,8-26,16.4-11.1c8.4,14.9,26.1,48.3,18,111.1
	c-8.1,62.8-0.6,79.9-0.6,79.9H720.3z"/>
<path class="st1" d="M798.3,800.5c0,0-6.4-41.1,0.8-83.5s-5.7-80.8-14.3-96.3c-8.6-15.5,8-26,16.4-11.1c8.4,14.9,26.1,48.3,18,111.1
	c-8.1,62.8-0.6,79.9-0.6,79.9H798.3z"/>
<path class="st1" d="M1031.3,800.5c0,0,6.4-41.1-0.8-83.5c-7.2-42.4,5.7-80.8,14.3-96.3c8.6-15.5-8-26-16.4-11.1
	c-8.4,14.9-26.1,48.3-18,111.1s0.6,79.9,0.6,79.9H1031.3z"/>
<path class="st1" d="M1475.3,800.5c0,0-6.4-41.1,0.8-83.5c7.2-42.4-5.7-80.8-14.3-96.3c-8.6-15.5,8-26,16.4-11.1
	c8.4,14.9,26.1,48.3,18,111.1c-8.1,62.8-0.6,79.9-0.6,79.9H1475.3z"/>
<path class="st1" d="M1529.3,800.5c0,0,6.4-41.1-0.8-83.5c-7.2-42.4,5.7-80.8,14.3-96.3c8.6-15.5-8-26-16.4-11.1
	c-8.4,14.9-26.1,48.3-18,111.1c8.1,62.8,0.6,79.9,0.6,79.9H1529.3z"/>
<path class="st1" d="M826.8,800.5c0,0-5.4-30.5,0.7-62c6.1-31.5-4.9-60-12.1-71.5s6.8-19.3,13.9-8.3s22.1,35.9,15.2,82.5
	c-6.9,46.6-0.5,59.3-0.5,59.3H826.8z"/>
<path class="st1" d="M242.3,800.5c0,0-6.4-41.1,0.8-83.5c7.2-42.4-5.7-80.8-14.3-96.3c-8.6-15.5,8-26,16.4-11.1
	c8.4,14.9,26.1,48.3,18,111.1c-8.1,62.8-0.6,79.9-0.6,79.9H242.3z"/>
<path class="st1" d="M274.3,800.5c0,0,6.4-41.1-0.8-83.5c-7.2-42.4,5.7-80.8,14.3-96.3c8.6-15.5-8-26-16.4-11.1
	c-8.4,14.9-26.1,48.3-18,111.1s0.6,79.9,0.6,79.9H274.3z"/>
<path class="st1" d="M947.3,800.5c0,0,6.4-41.1-0.8-83.5s5.7-80.8,14.3-96.3c8.6-15.5-8-26-16.4-11.1c-8.4,14.9-26.1,48.3-18,111.1
	s0.6,79.9,0.6,79.9H947.3z"/>
<path class="st1" d="M386.3,800.5c0,0-6.4-34.7,0.8-70.5c7.2-35.8-5.7-68.3-14.3-81.4c-8.6-13.1,8-22,16.4-9.4
	c8.4,12.6,26.1,40.8,18,93.9c-8.1,53-0.6,67.5-0.6,67.5H386.3z"/>
<path class="st1" d="M103,800.5c0,0-14-30.8-3-56.2s5.9-31.2-0.6-50.1C94,678.4,98,658,104,647.5c5.9-10.5,22-0.5,14,12
	c-5,7.7-3.9,26.6,1.5,37s8.3,29.4-2.5,52.7c-8.7,18.7,6.3,51.2,6.3,51.2H103z"/>
<path class="st1" d="M19,800.5c0,0-14-30.8-3-56.2s5.9-31.2-0.6-50.1C10,678.4,14,658,20,647.5c5.9-10.5,22-0.5,14,12
	c-5,7.7-3.9,26.6,1.5,37s8.3,29.4-2.5,52.7c-8.7,18.7,6.3,51.2,6.3,51.2H19z"/>
<path class="st1" d="M352,800.5c0,0-14-30.8-3-56.2s5.9-31.2-0.6-50.1c-5.4-15.7-1.4-36.2,4.6-46.7c5.9-10.5,22-0.5,14,12
	c-5,7.7-3.9,26.6,1.5,37s8.3,29.4-2.5,52.7c-8.7,18.7,6.3,51.2,6.3,51.2H352z"/>
<path class="st1" d="M408,800.5c0,0-14-30.8-3-56.2s5.9-31.2-0.6-50.1c-5.4-15.7-1.4-36.2,4.6-46.7c5.9-10.5,22-0.5,14,12
	c-5,7.7-3.9,26.6,1.5,37s8.3,29.4-2.5,52.7c-8.7,18.7,6.3,51.2,6.3,51.2H408z"/>
<path class="st1" d="M585,800.5c0,0-14-30.8-3-56.2s5.9-31.2-0.6-50.1c-5.4-15.7-1.4-36.2,4.6-46.7c5.9-10.5,22-0.5,14,12
	c-5,7.7-3.9,26.6,1.5,37s8.3,29.4-2.5,52.7c-8.7,18.7,6.3,51.2,6.3,51.2H585z"/>
<path class="st1" d="M842,800.5c0,0-14-30.8-3-56.2s5.9-31.2-0.6-50.1c-5.4-15.7-1.4-36.2,4.6-46.7c5.9-10.5,22-0.5,14,12
	c-5,7.7-3.9,26.6,1.5,37s8.3,29.4-2.5,52.7c-8.7,18.7,6.3,51.2,6.3,51.2H842z"/>
<path class="st1" d="M1040,800.5c0,0-14-30.8-3-56.2s5.9-31.2-0.6-50.1c-5.4-15.7-1.4-36.2,4.6-46.7c5.9-10.5,22-0.5,14,12
	c-5,7.7-3.9,26.6,1.5,37s8.3,29.4-2.5,52.7c-8.7,18.7,6.3,51.2,6.3,51.2H1040z"/>
<path class="st1" d="M1469,800.5c0,0-14-30.8-3-56.2s5.9-31.2-0.6-50.1c-5.4-15.7-1.4-36.2,4.6-46.7c5.9-10.5,22-0.5,14,12
	c-5,7.7-3.9,26.6,1.5,37s8.3,29.4-2.5,52.7c-8.7,18.7,6.3,51.2,6.3,51.2H1469z"/>
<path class="st1" d="M1258,800.5c0,0-14-30.8-3-56.2s5.9-31.2-0.6-50.1c-5.4-15.7-1.4-36.2,4.6-46.7c5.9-10.5,22-0.5,14,12
	c-5,7.7-3.9,26.6,1.5,37s8.3,29.4-2.5,52.7c-8.7,18.7,6.3,51.2,6.3,51.2H1258z"/>
<path class="st1" d="M950.1,800.5c0,0,14-30.8,3-56.2s-5.9-31.2,0.6-50.1c5.4-15.7,1.4-36.2-4.6-46.7c-5.9-10.5-22-0.5-14,12
	c5,7.7,3.9,26.6-1.5,37s-8.3,29.4,2.5,52.7c8.7,18.7-6.3,51.2-6.3,51.2H950.1z"/>
<path class="st1" d="M1379.1,800.5c0,0,14-30.8,3-56.2s-5.9-31.2,0.6-50.1c5.4-15.7,1.4-36.2-4.6-46.7c-5.9-10.5-22-0.5-14,12
	c5,7.7,3.9,26.6-1.5,37c-5.4,10.5-8.3,29.4,2.5,52.7c8.7,18.7-6.3,51.2-6.3,51.2H1379.1z"/>
<path class="st1" d="M469.7,800.5c0,0-10.7-23.9,0-55.9c10.7-32,13.9-45.5-2.4-59.5s2.7-24.1,15.7-7.4c8.5,10.9,16.4,23.5,0,73.6
	c-8.5,26,3.5,49.2,3.5,49.2H469.7z"/>
<path class="st1" d="M367.7,800.5c0,0-10.7-23.9,0-55.9c10.7-32,13.9-45.5-2.4-59.5s2.7-24.1,15.7-7.4c8.5,10.9,16.4,23.5,0,73.6
	c-8.5,26,3.5,49.2,3.5,49.2H367.7z"/>
<path class="st1" d="M311.7,800.5c0,0-10.7-23.9,0-55.9c10.7-32,13.9-45.5-2.4-59.5s2.7-24.1,15.7-7.4c8.5,10.9,16.4,23.5,0,73.6
	c-8.5,26,3.5,49.2,3.5,49.2H311.7z"/>
<path class="st1" d="M124.7,800.5c0,0-10.7-23.9,0-55.9s13.9-45.5-2.4-59.5s2.7-24.1,15.7-7.4c8.5,10.9,16.4,23.5,0,73.6
	c-8.5,26,3.5,49.2,3.5,49.2H124.7z"/>
<path class="st1" d="M38.7,800.5c0,0-10.7-23.9,0-55.9s13.9-45.5-2.4-59.5s2.7-24.1,15.7-7.4c8.5,10.9,16.4,23.5,0,73.6
	c-8.5,26,3.5,49.2,3.5,49.2H38.7z"/>
<path class="st1" d="M96,800.5c0,0,12.6-26.6,0-62.1s-16.4-50.5,2.8-66c19.2-15.5-3.2-26.7-18.5-8.2c-10.1,12.1-19.3,26.1,0,81.7
	c10,28.9-4.1,54.6-4.1,54.6H96z"/>
<path class="st1" d="M182,800.5c0,0,12.6-26.6,0-62.1s-16.4-50.5,2.8-66c19.2-15.5-3.2-26.7-18.5-8.2c-10.1,12.1-19.3,26.1,0,81.7
	c10,28.9-4.1,54.6-4.1,54.6H182z"/>
<path class="st1" d="M225,800.5c0,0,12.6-26.6,0-62.1s-16.4-50.5,2.8-66c19.2-15.5-3.2-26.7-18.5-8.2c-10.1,12.1-19.3,26.1,0,81.7
	c10,28.9-4.1,54.6-4.1,54.6H225z"/>
<path class="st1" d="M533,800.5c0,0,12.6-26.6,0-62.1c-12.6-35.5-16.4-50.5,2.8-66c19.2-15.5-3.2-26.7-18.5-8.2
	c-10.1,12.1-19.3,26.1,0,81.7c10,28.9-4.1,54.6-4.1,54.6H533z"/>
<path class="st1" d="M649,800.5c0,0,12.6-26.6,0-62.1c-12.6-35.5-16.4-50.5,2.8-66c19.2-15.5-3.2-26.7-18.5-8.2
	c-10.1,12.1-19.3,26.1,0,81.7c10,28.9-4.1,54.6-4.1,54.6H649z"/>
<path class="st1" d="M763,800.5c0,0,12.6-26.6,0-62.1c-12.6-35.5-16.4-50.5,2.8-66c19.2-15.5-3.2-26.7-18.5-8.2
	c-10.1,12.1-19.3,26.1,0,81.7c10,28.9-4.1,54.6-4.1,54.6H763z"/>
<path class="st1" d="M890,800.5c0,0,12.6-26.6,0-62.1c-12.6-35.5-16.4-50.5,2.8-66c19.2-15.5-3.2-26.7-18.5-8.2
	c-10.1,12.1-19.3,26.1,0,81.7c10,28.9-4.1,54.6-4.1,54.6H890z"/>
<path class="st1" d="M822.1,800.5c0,0,15.9-30.9,0-72.3s-20.7-58.7,3.5-76.8s-4-31.1-23.4-9.6c-12.7,14.1-24.4,30.3,0,95.1
	c12.6,33.6-5.2,63.6-5.2,63.6H822.1z"/>
<path class="st1" d="M693.1,800.5c0,0,15.9-30.9,0-72.3s-20.7-58.7,3.5-76.8s-4-31.1-23.4-9.6c-12.7,14.1-24.4,30.3,0,95.1
	c12.6,33.6-5.2,63.6-5.2,63.6H693.1z"/>
<path class="st1" d="M1006.1,800.5c0,0,15.9-30.9,0-72.3s-20.7-58.7,3.5-76.8c24.2-18.1-4-31.1-23.4-9.6
	c-12.7,14.1-24.4,30.3,0,95.1c12.6,33.6-5.2,63.6-5.2,63.6H1006.1z"/>
<path class="st1" d="M1119.2,800.5c0,0-13.8-26.3,0-61.4s18.1-49.9-3.1-65.3c-21.2-15.4,3.5-26.4,20.4-8.1c11.1,12,21.2,25.8,0,80.8
	c-11,28.5,4.5,54,4.5,54H1119.2z"/>
<path class="st1" d="M1095.1,800.5c0,0,15.9-30.9,0-72.3s-20.7-58.7,3.5-76.8c24.2-18.1-4-31.1-23.4-9.6
	c-12.7,14.1-24.4,30.3,0,95.1c12.6,33.6-5.2,63.6-5.2,63.6H1095.1z"/>
<path class="st1" d="M1201.1,800.5c0,0,15.9-30.9,0-72.3s-20.7-58.7,3.5-76.8c24.2-18.1-4-31.1-23.4-9.6
	c-12.7,14.1-24.4,30.3,0,95.1c12.6,33.6-5.2,63.6-5.2,63.6H1201.1z"/>
<path class="st1" d="M1344.1,800.5c0,0,15.9-30.9,0-72.3s-20.7-58.7,3.5-76.8c24.2-18.1-4-31.1-23.4-9.6
	c-12.7,14.1-24.4,30.3,0,95.1c12.6,33.6-5.2,63.6-5.2,63.6H1344.1z"/>
<path class="st1" d="M1437.1,800.5c0,0,15.9-30.9,0-72.3s-20.7-58.7,3.5-76.8c24.2-18.1-4-31.1-23.4-9.6
	c-12.7,14.1-24.4,30.3,0,95.1c12.6,33.6-5.2,63.6-5.2,63.6H1437.1z"/>
<path class="st1" d="M277.7,800.5c0,0,10.1-23,0-53.8c-10.1-30.8-13.2-43.8,2.2-57.2c15.4-13.5-2.6-23.2-14.9-7.1
	c-8.1,10.5-15.5,22.6,0,70.8c8,25-3.3,47.4-3.3,47.4H277.7z"/>
<path class="st1" d="M225.7,800.5c0,0-10.7-23.9,0-55.9c10.7-32,13.9-45.5-2.4-59.5s2.7-24.1,15.7-7.4c8.5,10.9,16.4,23.5,0,73.6
	c-8.5,26,3.5,49.2,3.5,49.2H225.7z"/>
<path class="st1" d="M544.7,800.5c0,0-10.7-23.9,0-55.9c10.7-32,13.9-45.5-2.4-59.5c-16.3-14,2.7-24.1,15.7-7.4
	c8.5,10.9,16.4,23.5,0,73.6c-8.5,26,3.5,49.2,3.5,49.2H544.7z"/>
<path class="st1" d="M705.7,800.5c0,0-10.7-23.9,0-55.9c10.7-32,13.9-45.5-2.4-59.5c-16.3-14,2.7-24.1,15.7-7.4
	c8.5,10.9,16.4,23.5,0,73.6c-8.5,26,3.5,49.2,3.5,49.2H705.7z"/>
<path class="st1" d="M1204.2,800.5c0,0-13.8-26.3,0-61.4s18.1-49.9-3.1-65.3c-21.2-15.4,3.5-26.4,20.4-8.1c11.1,12,21.2,25.8,0,80.8
	c-11,28.5,4.5,54,4.5,54H1204.2z"/>
<path class="st1" d="M1270.2,800.5c0,0-13.8-24.1,0-56.3s18.1-45.8-3.1-59.9c-21.2-14.1,3.5-24.2,20.4-7.4c11.1,11,21.2,23.6,0,74.1
	c-11,26.2,4.5,49.6,4.5,49.6H1270.2z"/>
<path class="st1" d="M1490.2,799.5c0,0-13.8-26.3,0-61.4s18.1-49.9-3.1-65.3c-21.2-15.4,3.5-26.4,20.4-8.1c11.1,12,21.2,25.8,0,80.8
	c-11,28.5,4.5,54,4.5,54H1490.2z"/>
<path class="st1" d="M1179.1,800.5c0,0,14-30.8,3-56.2s-5.9-31.2,0.6-50.1c5.4-15.7,1.4-36.2-4.6-46.7c-5.9-10.5-22-0.5-14,12
	c5,7.7,3.9,26.6-1.5,37c-5.4,10.5-8.3,29.4,2.5,52.7c8.7,18.7-6.3,51.2-6.3,51.2H1179.1z"/>
<g>
</g>
<g>
</g>
<g>
</g>
<g>
</g>
<g>
</g>
<g>
</g>
<g>
</g>
<g>
</g>
<g>
</g>
<g>
</g>
<g>
</g>
<g>
</g>
<g>
</g>
<g>
</g>
<g>
</g>
</svg>
