<svg xmlns="http://www.w3.org/2000/svg" viewBox="0 0 663.5 281.5" enable-background="new 0 0 663.5 281.5"><style type="text/css">.st0{stroke:#000000;stroke-miterlimit:10;} .st1{fill:#3989F5;stroke:#000000;stroke-miterlimit:10;} .st2{fill:#3989F5;} .st3{fill:#D7D224;stroke:#000000;stroke-miterlimit:10;}</style><path d="M152 198.4c30.7 34 112 87.3 236.7 72.7-133.9-2.9-190.7-41.7-221.3-71.7-30.7-30-44.7-29.7-44.7-29.7-1.4 3.7-1.4-5.3 29.3 28.7z"/><path class="st0" d="M0 188.9s0 11 136.5-37.5c0 0 6.1 4.5 30.7 9 207.8 10 254.2-9.3 286.8-32.6 32.7-23.3 10-54 40-65.3 28.9-10.9 56.6 35.7 58.7 39.3.4-9.8 8.4-17.6 18.3-17.6 2.5 0 4.8.5 6.9 1.4-.6-6.8-6.5-46.8-55.4-55-53.5-9-111.5-11-178 0s-128 37.5-142.5 47-42 18-48.5 18c0 0 47.4-55.9 212.2-81.8 92.3-14.5 155.5-.1 180 11.8-8.9-5.6-43.5-25.2-85.8-25.1 1.1 0 4.5.6 12.1 5-1-.2-32.8-5.7-54-5.3 0 0 12 3.4 15 5.1 0 0-41.3-4.8-56-2.7 0 0 7.4 1.5 11.1 4.2 0 0-41.1-1.8-55.1 2.2 0 0 12 .5 18 2.5 0 0-31.3 1.1-46 4.1 0 0 11.2.5 15.9 1.8 0 0-97.9 7.8-186.9 80.7 0 0-106.5-39.5-131.5-32.5 0 0 .6 4.2 1.4 11.2 50.6 3.5 211.4 57.8 211.4 57.8s-155.8 16.2-212.4 42.2c-.8 4.1-1.8 8.2-2.9 12.1zm381.3-120.5c54.7-10.7 86 0 84 13.3s-12 34-69.3 38-73.5-1.1-77.3-17.3c-1.6-6.6 8-23.4 62.6-34z"/><path class="st1" d="M122.7 169.7s14-.3 44.7 29.7c30.7 30 87.5 68.7 221.3 71.7 0 0 129.8 49.8 270.8-68.2 0 0-2.5-4-9.5-7 0 0 10-.5 13.5-6.5 0 0-11.5-103-115.5-162.5-.1-.1-.9-.6-2.1-1.4h-.1c-24.6-11.9-87.7-26.3-180-11.8-164.9 25.8-212.3 81.7-212.3 81.7 6.5 0 34-8.5 48.5-18s76-36 142.5-47 124.5-9 178 0c48.9 8.2 54.8 48.3 55.4 55 6.7 2.7 11.4 9.3 11.4 17 0 10.1-8.2 18.3-18.3 18.3s-18.3-8.2-18.3-18.3v-.7c-2.1-3.6-29.8-50.2-58.7-39.3-30 11.3-7.3 42-40 65.3-32.7 23.3-79 42.6-286.8 32.6h.2-.4c-4.3-.3-39.9-2.8-44.3 9.4zm391.2-48.5c-.1.3-.3.6-.4.8l.4-.8zm-.4.9c-3.2 6.8-17.2 45 43.2 84.3 0 0-72.5-25.8-43.2-84.3z"/><path class="st2" d="M318.7 102.4c3.9 16.2 20 21.3 77.3 17.3s67.3-24.7 69.3-38-29.3-24-84-13.3c-54.6 10.6-64.2 27.4-62.6 34z"/><path class="st3" d="M2.9 176.8c56.6-26 212.4-42.4 212.4-42.4s-160.8-54.4-211.4-57.9c2.3 20.4 5.9 64.6-1 100.3z"/><path d="M556.7 206.4c-60.4-39.2-46.4-77.4-43.2-84.3-29.3 58.5 43.2 84.3 43.2 84.3zm-143.4-20.7s18.9 3.9 34.7 2.4c5.6-.5 10.8-1.7 14.7-4 13.9-8.2 38.6-7.4 38.6-7.4-17.6-3.9-29.3.3-44 6.7-14.6 6.4-44 2.3-44 2.3zm0 0c.3 1 13.3 39.9 83.9 8.3-8.8 3.8-30.4 11.9-50.7 10.1-12.6-1.2-24.8-6.1-33.2-18.4z"/><path class="st2" d="M549.7 102.4c0 11.8 9.5 21.3 21.3 21.3s21.3-9.5 21.3-21.3c0-8.9-5.5-16.6-13.3-19.7-2.5-1-5.2-1.6-8.1-1.6-11.5 0-20.9 9.1-21.3 20.5.1.2.1.5.1.8z"/><path d="M552.7 102.4c0 10.1 8.2 18.3 18.3 18.3s18.3-8.2 18.3-18.3c0-7.7-4.7-14.2-11.4-17-2.1-.9-4.5-1.4-6.9-1.4-9.9 0-17.9 7.8-18.3 17.6v.8z"/><path class="st3" d="M447.3 187.6s8.3 4.6 8.6 9.3c.3 4.7-8.1 7.1-11.1 8 0 0-22.8-2.8-31.5-19.2 0 0 8.3 1.8 34 1.9z"/></svg>