<?xml version="1.0" encoding="utf-8"?>
<!-- Generator: Adobe Illustrator 18.1.0, SVG Export Plug-In . SVG Version: 6.00 Build 0)  -->
<svg version="1.1" id="Layer_1" xmlns="http://www.w3.org/2000/svg" xmlns:xlink="http://www.w3.org/1999/xlink" x="0px" y="0px"
	 viewBox="0 0 663.5 281.5" style="enable-background:new 0 0 663.5 281.5;" xml:space="preserve">
<style type="text/css">
	.st0{stroke:#000000;stroke-miterlimit:10;}
	.st1{fill:#3989F5;stroke:#000000;stroke-miterlimit:10;}
	.st2{fill:#3989F5;}
	.st3{fill:#D7D224;stroke:#000000;stroke-miterlimit:10;}
</style>
<g>
	<path d="M152,198.4c30.7,34,112,87.3,236.7,72.7c-133.9-2.9-190.7-41.7-221.3-71.7c-30.7-30-44.7-29.7-44.7-29.7
		C121.3,173.4,121.3,164.4,152,198.4z"/>
	<path class="st0" d="M0,188.9c0,0,0,11,136.5-37.5c0,0,6.1,4.5,30.7,9c207.8,10,254.2-9.3,286.8-32.6c32.7-23.3,10-54,40-65.3
		c28.9-10.9,56.6,35.7,58.7,39.3c0.4-9.8,8.4-17.6,18.3-17.6c2.5,0,4.8,0.5,6.9,1.4c-0.6-6.8-6.5-46.8-55.4-55
		c-53.5-9-111.5-11-178,0s-128,37.5-142.5,47s-42,18-48.5,18c0,0,47.4-55.9,212.2-81.8c92.3-14.5,155.5-0.1,180,11.8
		c-8.9-5.6-43.5-25.2-85.8-25.1c1.1,0,4.5,0.6,12.1,5c-1-0.2-32.8-5.7-54-5.3c0,0,12,3.4,15,5.1c0,0-41.3-4.8-56-2.7
		c0,0,7.4,1.5,11.1,4.2c0,0-41.1-1.8-55.1,2.2c0,0,12,0.5,18,2.5c0,0-31.3,1.1-46,4.1c0,0,11.2,0.5,15.9,1.8
		c0,0-97.9,7.8-186.9,80.7c0,0-106.5-39.5-131.5-32.5c0,0,0.6,4.2,1.4,11.2c50.6,3.5,211.4,57.8,211.4,57.8S59.5,150.8,2.9,176.8
		C2.1,180.9,1.1,185,0,188.9z M381.3,68.4c54.7-10.7,86,0,84,13.3c-2,13.3-12,34-69.3,38s-73.5-1.1-77.3-17.3
		C317.1,95.8,326.7,79,381.3,68.4z"/>
	<path class="st1" d="M122.7,169.7c0,0,14-0.3,44.7,29.7c30.7,30,87.5,68.7,221.3,71.7c0,0,129.8,49.8,270.8-68.2c0,0-2.5-4-9.5-7
		c0,0,10-0.5,13.5-6.5c0,0-11.5-103-115.5-162.5c0,0,0,0,0,0c-0.1-0.1-0.9-0.6-2.1-1.4c0,0-0.1,0-0.1,0
		c-24.6-11.9-87.7-26.3-180-11.8C200.9,39.5,153.5,95.4,153.5,95.4c6.5,0,34-8.5,48.5-18s76-36,142.5-47s124.5-9,178,0
		c48.9,8.2,54.8,48.3,55.4,55c6.7,2.7,11.4,9.3,11.4,17c0,10.1-8.2,18.3-18.3,18.3s-18.3-8.2-18.3-18.3c0-0.2,0-0.5,0-0.7
		c-2.1-3.6-29.8-50.2-58.7-39.3c-30,11.3-7.3,42-40,65.3c-32.7,23.3-79,42.6-286.8,32.6c0,0,0.1,0,0.2,0c0,0-0.1,0-0.4,0
		C162.7,160,127.1,157.5,122.7,169.7z M513.9,121.2c-0.1,0.3-0.3,0.6-0.4,0.8C513.7,121.6,513.8,121.4,513.9,121.2z M513.5,122.1
		c-3.2,6.8-17.2,45,43.2,84.3C556.7,206.4,484.2,180.6,513.5,122.1z"/>
	<path class="st2" d="M318.7,102.4c3.9,16.2,20,21.3,77.3,17.3s67.3-24.7,69.3-38c2-13.3-29.3-24-84-13.3
		C326.7,79,317.1,95.8,318.7,102.4z"/>
	<path class="st3" d="M2.9,176.8c56.6-26,212.4-42.4,212.4-42.4S54.5,80,3.9,76.5C6.2,96.9,9.8,141.1,2.9,176.8z"/>
	<path d="M556.7,206.4c-60.4-39.2-46.4-77.4-43.2-84.3C484.2,180.6,556.7,206.4,556.7,206.4z"/>
	<path d="M413.3,185.7c0,0,18.9,3.9,34.7,2.4c5.6-0.5,10.8-1.7,14.7-4c13.9-8.2,38.6-7.4,38.6-7.4c-17.6-3.9-29.3,0.3-44,6.7
		C442.7,189.8,413.3,185.7,413.3,185.7z"/>
	<path d="M413.3,185.7c0.3,1,13.3,39.9,83.9,8.3c-8.8,3.8-30.4,11.9-50.7,10.1c0,0,0,0,0,0C433.9,202.9,421.7,198,413.3,185.7z"/>
	<path class="st2" d="M549.7,102.4c0,11.8,9.5,21.3,21.3,21.3s21.3-9.5,21.3-21.3c0-8.9-5.5-16.6-13.3-19.7c-2.5-1-5.2-1.6-8.1-1.6
		c-11.5,0-20.9,9.1-21.3,20.5C549.7,101.8,549.7,102.1,549.7,102.4z"/>
	<path d="M552.7,102.4c0,10.1,8.2,18.3,18.3,18.3s18.3-8.2,18.3-18.3c0-7.7-4.7-14.2-11.4-17c-2.1-0.9-4.5-1.4-6.9-1.4
		c-9.9,0-17.9,7.8-18.3,17.6C552.7,101.9,552.7,102.1,552.7,102.4z"/>
	<path class="st3" d="M447.3,187.6c0,0,8.3,4.6,8.6,9.3c0.3,4.7-8.1,7.1-11.1,8c0,0-22.8-2.8-31.5-19.2
		C413.3,185.7,421.6,187.5,447.3,187.6z"/>
</g>
<g>
</g>
<g>
</g>
<g>
</g>
<g>
</g>
<g>
</g>
<g>
</g>
<g>
</g>
<g>
</g>
<g>
</g>
<g>
</g>
<g>
</g>
<g>
</g>
<g>
</g>
<g>
</g>
<g>
</g>
</svg>
