<svg xmlns="http://www.w3.org/2000/svg" viewBox="0 0 431.5 259.2" enable-background="new 0 0 431.5 259.2"><style type="text/css">.st0{fill:#F15621;stroke:#000000;stroke-miterlimit:10;} .st1{fill:#FFFFFF;stroke:#000000;stroke-miterlimit:10;} .st2{stroke:#000000;stroke-miterlimit:10;}</style><path class="st0" d="M1.1 142.1c-4.8 23.4 26.1 40.3 54.7 50.7l.3-.1c3-1.5 20.4-11.2 26.9-29.4 2-5.6 3-12.1 2.2-19.4-5.6-51-44.9-55.8-47.2-56-35.3 24.4-32.7 42.1-32.7 42.1-8.5 6.9-4.2 12.1-4.2 12.1z"/><path class="st1" d="M63.6 195c29-3.3 41.8-12.9 48.6-50.3 9.8-54.1-32.2-79.7-32.2-79.7-18 8-31.6 15.7-42 22.9 2.3.2 41.6 5 47.1 55.8.8 7.3-.2 13.8-2.2 19.4-.2.6-.4 1.2-.7 1.7l-.7 1.7c-.2.6-.5 1.1-.8 1.6-7.6 15-22.3 23.1-25 24.5l7.9 2.4z"/><path class="st2" d="M96.8 236c2.4 9.5 7.3 14.8 7.3 14.8 6.7 2 23.3-15.1 23.8-15.6-.1-.2-2.2-3.6-4.5-8.2-9.9 20.6-25.5 9.8-26.6 9z"/><path class="st0" d="M333.5 139c.9 28.2 23.8 44.6 24.5 45.1 1 .5 2.1 1 3.2 1.6.5.3 1.1.5 1.7.8 2.6-.8 42.7-13 46.3-42.5 3.7-30.4-19.5-43.7-41.3-53.5-1.2.3-2.4.6-3.5.9-3.1 1.9-31.8 20.5-30.9 47.6z"/><path class="st2" d="M362.8 186.5c30.9 13.9 76-5.3 67.7-66.5-4.8-35.3-35.7-35.9-62.6-29.4 21.8 9.8 45 23.1 41.3 53.5-3.7 29.4-43.8 41.6-46.4 42.4z"/><path class="st1" d="M303.7 168.6c9.4.2 26.7 2.3 54.2 15.6-.7-.5-23.6-16.9-24.5-45.1-.8-27.1 27.9-45.7 30.9-47.6-13.5 3.6-25.7 8.7-32.5 11.7-20.7 9.1-28.1 1.8-28.1 1.8s-17.1 18.5 0 63.6z"/><path class="st0" d="M214.7 207.1c6.5 3 12.6 5.4 18.4 7.4 8 1.3 64.8 9.1 69.2-35.6-3.1-5.8-6.1-10.1-6.1-10.1 1.3 0 3.8-.3 7.5-.2-17.1-45 0-63.6 0-63.6.5-.7 1.1-1.6 1.7-2.6 0 0-.7-54.6-52.9-51.6-4 3.4-8.7 7.5-11 10-4.3 4.9-12.6 10.9-11.8 42.8.8 31.9-9.8 62.2-14.4 77.3-4.2 14-2.4 24.3-.6 26.2z"/><path class="st2" d="M233.1 214.5c44.9 15.1 67.5.3 74.7-8.2 4.7-5.6-.6-18.3-5.5-27.4-4.4 44.7-61.2 36.9-69.2 35.6zm19.4-163.8c52.2-3 52.9 51.6 52.9 51.6 6.4-10.9 15.8-36.6-1.2-51.4-13.4-11.6-24.8-11.1-44.2-5.7-11.5 3.3-7.5 5.5-7.5 5.5z"/><path class="st1" d="M152.9 119.4c3.7-3 7.6-5.8 11.6-8.1 3.9-2.2 7.9-4 11.9-5 0 0 29.5 2.1 17.9 51-3.5 14.9-10.3 23.6-18.1 28.7-.1 1.3-.6 9.9-4.5 16.6 10-1.2 25.2-4.5 25.2-4.5 6.2 3.5 12.2 6.5 17.8 9.1-1.9-2-3.6-12.2.7-26.3 4.5-15 15.2-45.4 14.4-77.3-.8-31.9 7.5-37.9 11.8-42.8 2.3-2.6 7-6.7 11-10 3.2-2.7 6.7-4.8 7.5-5.4-7.1 1.7-14.4 4-22.2 6.4-27.8 8.4-57.4-22.1-59.7-24.5.5 1.4 2.9 8 3.9 16.1.8 7 .6 15.2-2.7 22.2-7.7 16-26.9 38.6-26.5 53.8z"/><path class="st2" d="M178 27s2.1-23.4-20.7-26.5l-24.8 8.3c-7.1-3.5-9.4-1.3-9.4-1.3-1.3 2.1-2.4 5.1-3.2 8.5 3.4-.9 50-12.6 62.2 27.2-1-8.2-3.4-14.8-3.9-16.1l-.2-.1z"/><path class="st0" d="M133.1 242.7c41.5 21 33.9-36 33.5-39.2-.4-.2-.6-.4-.6-.4 1.5 0 3.4-.2 5.6-.5h.1c3.9-6.7 4.5-15.3 4.5-16.6-3.9 2.5-7.9 4.1-12 5 .1-.1 1-.6 2.4-1.7.2-.1.4-.3.6-.5l.1-.1.6-.5c1.1-.9 2.4-2.1 3.7-3.6l.5-.5c1.5-1.7 3.2-3.7 4.8-6l.5-.7.5-.7c.5-.8 1-1.5 1.4-2.4l.7-1.2.6-1c.1-.1.1-.2.1-.3l.5-.9c.2-.4.4-.8.5-1.2.2-.4.4-.8.5-1.2.4-.8.7-1.6 1-2.5l.4-1c.2-.6.5-1.3.7-2l.1-.2.6-2.1c.3-1.2.6-2.3.9-3.6.2-.8.4-1.7.5-2.5.3-1.6.6-3.2.8-4.9 3.6-29.7-22.7-38.5-22.7-38.5-4 2.3-7.9 5.1-11.6 8.1-.4-15.2 18.8-37.8 26.4-53.9 3.3-7 3.5-15.2 2.7-22.2-12.2-39.8-58.9-28.1-62.2-27.2-3.5 13.7-4 34.6-4 34.6-13.5 4.9-25.4 9.8-35.8 14.4 0 0 41.4 28.7 32.3 79.3-5.9 32.6-19.7 47.4-48.7 50.7 19.8 6.5 36.5 10 36.5 10-5.5 12.5-5.3 23.1-3.4 30.8v.1c1.1.8 16.7 11.6 26.5-9 2.4 4.6 4.4 8 4.5 8.2l5.4 7.6z"/><path class="st2" d="M133 242.5c17.6 26.1 47.1 13.8 47.1 13.8 10.4-36.6-9.7-50.5-13.5-52.8.4 3.2 7.9 60.1-33.6 39zm31.2-51.5c4-.9 8.1-2.5 12-5 7.8-5 14.6-13.8 18.1-28.7 11.6-48.9-17.9-51-17.9-51-4 1-8 2.7-11.9 5 0 0 26.3 8.8 22.7 38.5-.2 1.7-.5 3.3-.8 4.9-.2.9-.3 1.7-.5 2.5l-.9 3.6-.6 2.1-.1.2c-.2.7-.4 1.3-.7 2l-.4 1c-.3.9-.7 1.7-1 2.5l-.5 1.2c-.2.4-.4.8-.5 1.2l-.5.9-.1.3-.6 1-.7 1.2c-.5.8-1 1.6-1.4 2.4-.2.3-.3.5-.5.7-.2.3-.3.5-.5.7-1.6 2.4-3.3 4.4-4.8 6l-.5.5c-1.4 1.5-2.7 2.6-3.7 3.6l-.6.5-.1.1-.6.5c-1.4 1-2.3 1.5-2.4 1.6z"/><ellipse transform="matrix(-.999 .046 -.046 -.999 115.606 231.396)" class="st2" cx="55.2" cy="117" rx="8.2" ry="7"/><path d="M1.1 142.1s10 1.8 19.3.6c.1-.1-10.2 4-19.3-.6zm126.1 91.9s-6-9.8-7-23.8c-.1 0-1.8 13.1 7 23.8z"/></svg>