<?xml version="1.0" encoding="utf-8"?>
<!-- Generator: Adobe Illustrator 18.1.0, SVG Export Plug-In . SVG Version: 6.00 Build 0)  -->
<svg version="1.1" id="Layer_1" xmlns="http://www.w3.org/2000/svg" xmlns:xlink="http://www.w3.org/1999/xlink" x="0px" y="0px"
	 viewBox="0 0 431.5 259.2" style="enable-background:new 0 0 431.5 259.2;" xml:space="preserve">
<style type="text/css">
	.st0{fill:#F15621;stroke:#000000;stroke-miterlimit:10;}
	.st1{fill:#FFFFFF;stroke:#000000;stroke-miterlimit:10;}
	.st2{stroke:#000000;stroke-miterlimit:10;}
</style>
<g>
	<path class="st0" d="M1.1,142.1c-4.8,23.4,26.1,40.3,54.7,50.7c0.1,0,0.2-0.1,0.3-0.1c3-1.5,20.4-11.2,26.9-29.4
		c2-5.6,3-12.1,2.2-19.4C79.6,92.9,40.3,88.1,38,87.9C2.7,112.3,5.3,130,5.3,130C-3.2,136.9,1.1,142.1,1.1,142.1z"/>
	<path class="st1" d="M63.6,195c29-3.3,41.8-12.9,48.6-50.3C122,90.6,80,65,80,65c-18,8-31.6,15.7-42,22.9c2.3,0.2,41.6,5,47.1,55.8
		c0.8,7.3-0.2,13.8-2.2,19.4c-0.2,0.6-0.4,1.2-0.7,1.7c-0.2,0.6-0.5,1.1-0.7,1.7c-0.2,0.6-0.5,1.1-0.8,1.6
		c-7.6,15-22.3,23.1-25,24.5L63.6,195z"/>
	<path class="st2" d="M96.8,236c2.4,9.5,7.3,14.8,7.3,14.8c6.7,2,23.3-15.1,23.8-15.6c-0.1-0.2-2.2-3.6-4.5-8.2
		C113.5,247.6,97.9,236.8,96.8,236z"/>
	<path class="st0" d="M333.5,139c0.9,28.2,23.8,44.6,24.5,45.1c0,0,0,0,0,0c1,0.5,2.1,1,3.2,1.6c0.5,0.3,1.1,0.5,1.7,0.8
		c2.6-0.8,42.7-13,46.3-42.5c3.7-30.4-19.5-43.7-41.3-53.5c-1.2,0.3-2.4,0.6-3.5,0.9c0,0,0,0,0,0C361.3,93.3,332.6,111.9,333.5,139z
		"/>
	<path class="st2" d="M362.8,186.5c30.9,13.9,76-5.3,67.7-66.5c-4.8-35.3-35.7-35.9-62.6-29.4c21.8,9.8,45,23.1,41.3,53.5
		C405.5,173.5,365.4,185.7,362.8,186.5z"/>
	<path class="st1" d="M303.7,168.6c9.4,0.2,26.7,2.3,54.2,15.6c-0.7-0.5-23.6-16.9-24.5-45.1c-0.8-27.1,27.9-45.7,30.9-47.6
		c-13.5,3.6-25.7,8.7-32.5,11.7c-20.7,9.1-28.1,1.8-28.1,1.8S286.6,123.5,303.7,168.6z"/>
	<path class="st0" d="M214.7,207.1c6.5,3,12.6,5.4,18.4,7.4c8,1.3,64.8,9.1,69.2-35.6c-3.1-5.8-6.1-10.1-6.1-10.1
		c1.3,0,3.8-0.3,7.5-0.2c-17.1-45,0-63.6,0-63.6c0.5-0.7,1.1-1.6,1.7-2.6c0,0-0.7-54.6-52.9-51.6c-4,3.4-8.7,7.5-11,10
		c-4.3,4.9-12.6,10.9-11.8,42.8c0.8,31.9-9.8,62.2-14.4,77.3C211.1,194.9,212.9,205.2,214.7,207.1z"/>
	<path class="st2" d="M233.1,214.5c44.9,15.1,67.5,0.3,74.7-8.2c4.7-5.6-0.6-18.3-5.5-27.4C297.9,223.6,241.1,215.8,233.1,214.5z"/>
	<path class="st2" d="M252.5,50.7c52.2-3,52.9,51.6,52.9,51.6c6.4-10.9,15.8-36.6-1.2-51.4c-13.4-11.6-24.8-11.1-44.2-5.7
		C248.5,48.5,252.5,50.7,252.5,50.7z"/>
	<path class="st1" d="M152.9,119.4c3.7-3,7.6-5.8,11.6-8.1c3.9-2.2,7.9-4,11.9-5c0,0,29.5,2.1,17.9,51
		c-3.5,14.9-10.3,23.6-18.1,28.7c-0.1,1.3-0.6,9.9-4.5,16.6c10-1.2,25.2-4.5,25.2-4.5c6.2,3.5,12.2,6.5,17.8,9.1
		c-1.9-2-3.6-12.2,0.7-26.3c4.5-15,15.2-45.4,14.4-77.3c-0.8-31.9,7.5-37.9,11.8-42.8c2.3-2.6,7-6.7,11-10c3.2-2.7,6.7-4.8,7.5-5.4
		c-7.1,1.7-14.4,4-22.2,6.4c-27.8,8.4-57.4-22.1-59.7-24.5c0.5,1.4,2.9,8,3.9,16.1c0.8,7,0.6,15.2-2.7,22.2
		C171.7,81.6,152.5,104.2,152.9,119.4z"/>
	<path class="st2" d="M178,27c0,0,2.1-23.4-20.7-26.5s-24.8,8.3-24.8,8.3c-7.1-3.5-9.4-1.3-9.4-1.3c-1.3,2.1-2.4,5.1-3.2,8.5
		c3.4-0.9,50-12.6,62.2,27.2c-1-8.2-3.4-14.8-3.9-16.1c0,0,0,0,0,0L178,27z"/>
	<path class="st0" d="M133.1,242.7c41.5,21,33.9-36,33.5-39.2c-0.4-0.2-0.6-0.4-0.6-0.4c1.5,0,3.4-0.2,5.6-0.5c0,0,0.1,0,0.1,0
		c3.9-6.7,4.5-15.3,4.5-16.6c-3.9,2.5-7.9,4.1-12,5c0.1-0.1,1-0.6,2.4-1.7c0.2-0.1,0.4-0.3,0.6-0.5l0.1-0.1c0.2-0.2,0.4-0.3,0.6-0.5
		c1.1-0.9,2.4-2.1,3.7-3.6c0.2-0.2,0.3-0.3,0.5-0.5c1.5-1.7,3.2-3.7,4.8-6c0.2-0.2,0.3-0.5,0.5-0.7c0.2-0.2,0.3-0.5,0.5-0.7
		c0.5-0.8,1-1.5,1.4-2.4c0.2-0.4,0.5-0.8,0.7-1.2c0.2-0.3,0.4-0.7,0.6-1c0.1-0.1,0.1-0.2,0.1-0.3c0.2-0.3,0.3-0.6,0.5-0.9
		c0.2-0.4,0.4-0.8,0.5-1.2c0.2-0.4,0.4-0.8,0.5-1.2c0.4-0.8,0.7-1.6,1-2.5c0.1-0.3,0.3-0.7,0.4-1c0.2-0.6,0.5-1.3,0.7-2l0.1-0.2
		c0.2-0.7,0.4-1.4,0.6-2.1c0.3-1.2,0.6-2.3,0.9-3.6c0.2-0.8,0.4-1.7,0.5-2.5c0.3-1.6,0.6-3.2,0.8-4.9c3.6-29.7-22.7-38.5-22.7-38.5
		c-4,2.3-7.9,5.1-11.6,8.1c-0.4-15.2,18.8-37.8,26.4-53.9c3.3-7,3.5-15.2,2.7-22.2c-12.2-39.8-58.9-28.1-62.2-27.2
		c-3.5,13.7-4,34.6-4,34.6C102.3,55.5,90.4,60.4,80,65c0,0,41.4,28.7,32.3,79.3c-5.9,32.6-19.7,47.4-48.7,50.7
		c19.8,6.5,36.5,10,36.5,10c-5.5,12.5-5.3,23.1-3.4,30.8c0,0.1,0,0.1,0,0.1c1.1,0.8,16.7,11.6,26.5-9c2.4,4.6,4.4,8,4.5,8.2
		L133.1,242.7z"/>
	<path class="st2" d="M133,242.5c17.6,26.1,47.1,13.8,47.1,13.8c10.4-36.6-9.7-50.5-13.5-52.8C167,206.7,174.5,263.6,133,242.5z"/>
	<path class="st2" d="M164.2,191c4-0.9,8.1-2.5,12-5c7.8-5,14.6-13.8,18.1-28.7c11.6-48.9-17.9-51-17.9-51c-4,1-8,2.7-11.9,5
		c0,0,26.3,8.8,22.7,38.5c-0.2,1.7-0.5,3.3-0.8,4.9c-0.2,0.9-0.3,1.7-0.5,2.5c-0.3,1.2-0.6,2.4-0.9,3.6c-0.2,0.7-0.4,1.4-0.6,2.1
		l-0.1,0.2c-0.2,0.7-0.4,1.3-0.7,2c-0.1,0.3-0.3,0.7-0.4,1c-0.3,0.9-0.7,1.7-1,2.5c-0.2,0.4-0.3,0.8-0.5,1.2
		c-0.2,0.4-0.4,0.8-0.5,1.2c-0.2,0.3-0.3,0.6-0.5,0.9c0,0.1-0.1,0.2-0.1,0.3c-0.2,0.3-0.4,0.7-0.6,1c-0.2,0.4-0.5,0.8-0.7,1.2
		c-0.5,0.8-1,1.6-1.4,2.4c-0.2,0.3-0.3,0.5-0.5,0.7c-0.2,0.3-0.3,0.5-0.5,0.7c-1.6,2.4-3.3,4.4-4.8,6c-0.2,0.2-0.3,0.3-0.5,0.5
		c-1.4,1.5-2.7,2.6-3.7,3.6c-0.2,0.2-0.4,0.3-0.6,0.5l-0.1,0.1c-0.2,0.2-0.4,0.3-0.6,0.5C165.2,190.4,164.3,190.9,164.2,191z"/>
	
		<ellipse transform="matrix(-0.999 4.553451e-02 -4.553451e-02 -0.999 115.6065 231.3961)" class="st2" cx="55.2" cy="117" rx="8.2" ry="7"/>
	<path d="M1.1,142.1c0,0,10,1.8,19.3,0.6C20.5,142.6,10.2,146.7,1.1,142.1z"/>
</g>
<path d="M127.2,234c0,0-6-9.8-7-23.8C120.1,210.2,118.4,223.3,127.2,234z"/>
<g>
</g>
<g>
</g>
<g>
</g>
<g>
</g>
<g>
</g>
<g>
</g>
<g>
</g>
<g>
</g>
<g>
</g>
<g>
</g>
<g>
</g>
<g>
</g>
<g>
</g>
<g>
</g>
<g>
</g>
</svg>
