<?xml version="1.0" encoding="utf-8"?>
<!-- Generator: Adobe Illustrator 18.1.0, SVG Export Plug-In . SVG Version: 6.00 Build 0)  -->
<svg version="1.1" id="Layer_1" xmlns="http://www.w3.org/2000/svg" xmlns:xlink="http://www.w3.org/1999/xlink" x="0px" y="0px"
	 viewBox="0 0 305 305" style="enable-background:new 0 0 305 305;" xml:space="preserve">
<style type="text/css">
	.st0{fill:#0C2D51;}
	.st1{fill:#66CCFF;}
</style>
<circle class="st0" cx="152.5" cy="152.5" r="152.5"/>
<g>
	<path class="st1" d="M231,114H74c-6.3,0-11.5-5.2-11.5-11.5v0C62.5,96.1,67.6,91,74,91H231c6.3,0,11.5,5.2,11.5,11.5v0
		C242.5,108.8,237.4,114,231,114z"/>
	<path class="st1" d="M231,164H74c-6.3,0-11.5-5.2-11.5-11.5v0c0-6.3,5.2-11.5,11.5-11.5H231c6.3,0,11.5,5.2,11.5,11.5v0
		C242.5,158.8,237.4,164,231,164z"/>
	<path class="st1" d="M231,214H74c-6.3,0-11.5-5.2-11.5-11.5v0c0-6.3,5.2-11.5,11.5-11.5H231c6.3,0,11.5,5.2,11.5,11.5v0
		C242.5,208.9,237.4,214,231,214z"/>
</g>
<g>
</g>
<g>
</g>
<g>
</g>
<g>
</g>
<g>
</g>
<g>
</g>
<g>
</g>
<g>
</g>
<g>
</g>
<g>
</g>
<g>
</g>
<g>
</g>
<g>
</g>
<g>
</g>
<g>
</g>
</svg>
