<?xml version="1.0" encoding="utf-8"?>
<!-- Generator: Adobe Illustrator 18.1.0, SVG Export Plug-In . SVG Version: 6.00 Build 0)  -->
<svg version="1.1" id="Layer_1" xmlns="http://www.w3.org/2000/svg" xmlns:xlink="http://www.w3.org/1999/xlink" x="0px" y="0px"
	 viewBox="0 0 551.3 491" style="enable-background:new 0 0 551.3 491;" xml:space="preserve">
<style type="text/css">
	.st0{fill:#C37A24;stroke:#000000;stroke-miterlimit:10;}
	.st1{fill:#6A2020;}
	.st2{fill:#FFFFFF;stroke:#C37A24;stroke-width:4;stroke-miterlimit:10;}
	.st3{fill:#FFFFFF;stroke:#6A2020;stroke-width:4;stroke-miterlimit:10;}
</style>
<path class="st0" d="M303.4,17l41,126.2c3.3,10.3,13,17.2,23.8,17l158-2.4c25.1-0.4,34.6,32.5,13.3,45.7l-128.8,79.4
	c-10.1,6.2-14.3,18.7-10.1,29.8l55.3,144.7c9,23.5-18.8,43.7-38.4,28.1L294,387.1c-8.4-6.7-20.2-7.2-29.1-1.2l-125.6,83.9
	c-20.5,13.7-46.2-7.8-36.3-30.4L157.2,315c5.2-12,0.2-26-11.5-31.9L13.6,216.8c-22.6-11.4-15.5-45.4,9.8-46.7l169.5-8.7
	c10.2-0.5,19-7.3,22.2-17L256.5,17C263.9-5.7,296-5.7,303.4,17z"/>
<path class="st1" d="M282,378.8c-1,3.6-6,3.9-7.3,0.4c-6.6-17.3-14.4-54.8-33-67.9c-17.2-12.2-59.5-8.2-78.5-7.7
	c-3.8,0.1-5.5-4.7-2.4-7c15.1-11,53.9-34.5,57.7-51.7c3.8-17.3-6.9-67.4-12.7-84.6c-1.2-3.5,2.8-6.5,5.9-4.4
	c15,10.5,41.3,45.8,65.4,46.3c28.6,0.5,56.1-36.8,70.4-47.7c2.9-2.2,7,0.4,6.1,4c-4.3,17.8-30.4,63.7-21.5,83.8
	c10.6,23.8,50.3,39.6,66.4,50.5c3.1,2.1,1.6,7-2.1,7.1c-17.9,0.3-62.6-5.1-84.4,9.8C291,323.9,286.6,361.3,282,378.8z"/>
<circle class="st2" cx="279.6" cy="216.6" r="8.8"/>
<circle class="st2" cx="320.6" cy="254.6" r="8.8"/>
<circle class="st2" cx="230.6" cy="251.6" r="8.8"/>
<circle class="st2" cx="265.6" cy="258.6" r="6.1"/>
<circle class="st2" cx="285.6" cy="258.6" r="6.1"/>
<circle class="st2" cx="275.6" cy="274.6" r="6.1"/>
<circle class="st2" cx="252.6" cy="299.6" r="8.8"/>
<circle class="st2" cx="302.6" cy="295.6" r="8.8"/>
<circle class="st2" cx="252.6" cy="236.1" r="3.7"/>
<circle class="st2" cx="234.6" cy="278.1" r="3.7"/>
<circle class="st2" cx="279.6" cy="309.1" r="3.7"/>
<circle class="st2" cx="316.6" cy="278.1" r="3.7"/>
<circle class="st2" cx="304.6" cy="232.1" r="3.7"/>
<circle class="st3" cx="280.7" cy="162.2" r="8.9"/>
<circle class="st3" cx="279.2" cy="130.2" r="12"/>
<circle class="st3" cx="279.3" cy="96.6" r="10"/>
<circle class="st3" cx="279.7" cy="64.1" r="7.3"/>
<circle class="st3" cx="280.1" cy="31.5" r="10"/>
<circle class="st3" cx="338" cy="333.6" r="8.9"/>
<circle class="st3" cx="356.6" cy="359.7" r="12"/>
<circle class="st3" cx="374.7" cy="387.9" r="10"/>
<circle class="st3" cx="392" cy="415.5" r="7.3"/>
<circle class="st3" cx="409.3" cy="443.1" r="10"/>
<circle class="st3" cx="382.2" cy="229.2" r="8.9"/>
<circle class="st3" cx="412" cy="217.5" r="12"/>
<circle class="st3" cx="443.8" cy="206.9" r="10"/>
<circle class="st3" cx="474.8" cy="196.9" r="7.3"/>
<circle class="st3" cx="505.8" cy="186.9" r="10"/>
<circle class="st3" cx="222.7" cy="336.1" r="8.9"/>
<circle class="st3" cx="203.1" cy="361.3" r="12"/>
<circle class="st3" cx="181.2" cy="386.7" r="10"/>
<circle class="st3" cx="159.7" cy="411.2" r="7.3"/>
<circle class="st3" cx="138.2" cy="435.7" r="10"/>
<circle class="st3" cx="190.1" cy="237.8" r="8.9"/>
<circle class="st3" cx="158.9" cy="230.2" r="12"/>
<circle class="st3" cx="126.8" cy="220.7" r="10"/>
<circle class="st3" cx="95.7" cy="211.1" r="7.3"/>
<circle class="st3" cx="64.5" cy="201.6" r="10"/>
<g>
</g>
<g>
</g>
<g>
</g>
<g>
</g>
<g>
</g>
<g>
</g>
<g>
</g>
<g>
</g>
<g>
</g>
<g>
</g>
<g>
</g>
<g>
</g>
<g>
</g>
<g>
</g>
<g>
</g>
</svg>
